<svg width="24" height="24" viewBox="0 0 24 24" fill="none" xmlns="http://www.w3.org/2000/svg">
<path d="M20.0306 15.5306C19.9609 15.6004 19.8782 15.6557 19.7871 15.6934C19.6961 15.7312 19.5985 15.7506 19.4999 15.7506C19.4014 15.7506 19.3038 15.7312 19.2127 15.6934C19.1217 15.6557 19.039 15.6004 18.9693 15.5306L11.9999 8.56031L5.03055 15.5306C4.88982 15.6714 4.69895 15.7504 4.49993 15.7504C4.30091 15.7504 4.11003 15.6714 3.9693 15.5306C3.82857 15.3899 3.74951 15.199 3.74951 15C3.74951 14.801 3.82857 14.6101 3.9693 14.4694L11.4693 6.96937C11.539 6.89964 11.6217 6.84432 11.7127 6.80658C11.8038 6.76884 11.9014 6.74941 11.9999 6.74941C12.0985 6.74941 12.1961 6.76884 12.2871 6.80658C12.3782 6.84432 12.4609 6.89964 12.5306 6.96937L20.0306 14.4694C20.1003 14.539 20.1556 14.6217 20.1933 14.7128C20.2311 14.8038 20.2505 14.9014 20.2505 15C20.2505 15.0986 20.2311 15.1962 20.1933 15.2872C20.1556 15.3783 20.1003 15.461 20.0306 15.5306Z" fill="black"/>
</svg>
