<svg width="16" height="17" viewBox="0 0 16 17" fill="none" xmlns="http://www.w3.org/2000/svg">
<path d="M13.5 3.5H2.50002C2.2348 3.5 1.98045 3.60536 1.79291 3.79289C1.60537 3.98043 1.50002 4.23478 1.50002 4.5V14.5C1.49889 14.6906 1.55277 14.8775 1.65521 15.0382C1.75764 15.199 1.90427 15.3268 2.07752 15.4062C2.2099 15.4677 2.35406 15.4997 2.50002 15.5C2.73477 15.4994 2.96173 15.4157 3.14064 15.2638L3.14627 15.2594L5.18752 13.5H13.5C13.7652 13.5 14.0196 13.3946 14.2071 13.2071C14.3947 13.0196 14.5 12.7652 14.5 12.5V4.5C14.5 4.23478 14.3947 3.98043 14.2071 3.79289C14.0196 3.60536 13.7652 3.5 13.5 3.5ZM13.5 12.5H5.00002C4.87996 12.5001 4.76394 12.5433 4.67314 12.6219L2.50002 14.5V4.5H13.5V12.5ZM5.50002 7.5C5.50002 7.36739 5.5527 7.24021 5.64646 7.14645C5.74023 7.05268 5.86741 7 6.00002 7H10C10.1326 7 10.2598 7.05268 10.3536 7.14645C10.4473 7.24021 10.5 7.36739 10.5 7.5C10.5 7.63261 10.4473 7.75979 10.3536 7.85355C10.2598 7.94732 10.1326 8 10 8H6.00002C5.86741 8 5.74023 7.94732 5.64646 7.85355C5.5527 7.75979 5.50002 7.63261 5.50002 7.5ZM5.50002 9.5C5.50002 9.36739 5.5527 9.24021 5.64646 9.14645C5.74023 9.05268 5.86741 9 6.00002 9H10C10.1326 9 10.2598 9.05268 10.3536 9.14645C10.4473 9.24021 10.5 9.36739 10.5 9.5C10.5 9.63261 10.4473 9.75979 10.3536 9.85355C10.2598 9.94732 10.1326 10 10 10H6.00002C5.86741 10 5.74023 9.94732 5.64646 9.85355C5.5527 9.75979 5.50002 9.63261 5.50002 9.5Z" fill="#BCC2CA"/>
</svg>
