<svg width="12" height="12" viewBox="0 0 12 12" fill="none" xmlns="http://www.w3.org/2000/svg">
<path d="M10.0155 4.76515L6.26552 8.51515C6.23069 8.55002 6.18934 8.57768 6.14381 8.59655C6.09829 8.61542 6.04949 8.62514 6.00021 8.62514C5.95093 8.62514 5.90213 8.61542 5.85661 8.59655C5.81108 8.57768 5.76972 8.55002 5.7349 8.51515L1.9849 4.76515C1.91453 4.69479 1.875 4.59935 1.875 4.49984C1.875 4.40033 1.91453 4.30489 1.9849 4.23453C2.05526 4.16416 2.1507 4.12463 2.25021 4.12463C2.34972 4.12463 2.44516 4.16416 2.51552 4.23453L6.00021 7.71969L9.4849 4.23453C9.51974 4.19969 9.5611 4.17205 9.60662 4.15319C9.65214 4.13434 9.70094 4.12463 9.75021 4.12463C9.79948 4.12463 9.84827 4.13434 9.8938 4.15319C9.93932 4.17205 9.98068 4.19969 10.0155 4.23453C10.0504 4.26937 10.078 4.31073 10.0969 4.35626C10.1157 4.40178 10.1254 4.45057 10.1254 4.49984C10.1254 4.54912 10.1157 4.59791 10.0969 4.64343C10.078 4.68895 10.0504 4.73031 10.0155 4.76515Z" fill="black"/>
</svg>
