<svg width="24" height="24" viewBox="0 0 24 24" fill="none" xmlns="http://www.w3.org/2000/svg">
<path d="M20.0306 5.03062L15.3102 9.75H17.9999C18.1988 9.75 18.3896 9.82902 18.5303 9.96967C18.6709 10.1103 18.7499 10.3011 18.7499 10.5C18.7499 10.6989 18.6709 10.8897 18.5303 11.0303C18.3896 11.171 18.1988 11.25 17.9999 11.25H13.4999C13.301 11.25 13.1103 11.171 12.9696 11.0303C12.8289 10.8897 12.7499 10.6989 12.7499 10.5V6C12.7499 5.80108 12.8289 5.61032 12.9696 5.46967C13.1103 5.32902 13.301 5.25 13.4999 5.25C13.6988 5.25 13.8896 5.32902 14.0303 5.46967C14.1709 5.61032 14.2499 5.80108 14.2499 6V8.68968L18.9693 3.96937C19.11 3.82864 19.3009 3.74958 19.4999 3.74958C19.699 3.74958 19.8898 3.82864 20.0306 3.96937C20.1713 4.1101 20.2503 4.30097 20.2503 4.5C20.2503 4.69902 20.1713 4.88989 20.0306 5.03062ZM10.4999 12.75H5.99993C5.80102 12.75 5.61025 12.829 5.4696 12.9697C5.32895 13.1103 5.24993 13.3011 5.24993 13.5C5.24993 13.6989 5.32895 13.8897 5.4696 14.0303C5.61025 14.171 5.80102 14.25 5.99993 14.25H8.68962L3.9693 18.9694C3.82857 19.1101 3.74951 19.301 3.74951 19.5C3.74951 19.699 3.82857 19.8899 3.9693 20.0306C4.11003 20.1714 4.30091 20.2504 4.49993 20.2504C4.69895 20.2504 4.88982 20.1714 5.03055 20.0306L9.74993 15.3103V18C9.74993 18.1989 9.82895 18.3897 9.9696 18.5303C10.1103 18.671 10.301 18.75 10.4999 18.75C10.6988 18.75 10.8896 18.671 11.0303 18.5303C11.1709 18.3897 11.2499 18.1989 11.2499 18V13.5C11.2499 13.3011 11.1709 13.1103 11.0303 12.9697C10.8896 12.829 10.6988 12.75 10.4999 12.75Z" fill="black"/>
</svg>
