<svg width="72" height="72" viewBox="0 0 72 72" fill="none" xmlns="http://www.w3.org/2000/svg">
<path d="M36 5.43457C36.7681 5.43445 37.5362 5.72757 38.1221 6.31348C38.1523 6.34375 38.1813 6.37503 38.21 6.40625L61.9443 30.1406C61.9811 30.1755 62.0168 30.2113 62.0518 30.248L67.9648 36.1611C69.1361 37.3326 69.1361 39.2328 67.9648 40.4043C66.8299 41.539 65.0116 41.5745 63.834 40.5107L63.7227 40.4043L62.8799 39.5615V56.9229H65.8486C67.5055 56.9229 68.8486 58.266 68.8486 59.9229C68.8486 61.5797 67.5055 62.9229 65.8486 62.9229H6.15234C4.49549 62.9229 3.15234 61.5797 3.15234 59.9229C3.15234 58.266 4.49549 56.9229 6.15234 56.9229H9.11816V39.5596L8.27344 40.4043L8.16211 40.5107C7.64689 40.9763 7.009 41.2308 6.35938 41.2754C6.17392 41.2881 5.98753 41.2843 5.80273 41.2627C5.15536 41.1871 4.5279 40.9009 4.03125 40.4043C2.85968 39.2327 2.85968 37.3327 4.03125 36.1611L9.96582 30.2256C9.98699 30.2038 10.0085 30.1823 10.0303 30.1611L33.7852 6.40625C33.8139 6.37495 33.8437 6.34383 33.874 6.31348C34.4608 5.72686 35.2299 5.43455 35.999 5.43555L36 5.43457ZM15.1182 33.5596V56.9229H56.8799V33.5615L35.998 12.6797L15.1182 33.5596Z" fill="#DDE0E4"/>
<path d="M28 44C28 41.7909 29.7909 40 32 40H40C42.2091 40 44 41.7909 44 44V60H28V44Z" stroke="#DDE0E4" stroke-width="6"/>
</svg>
