<svg width="24" height="24" viewBox="0 0 24 24" fill="none" xmlns="http://www.w3.org/2000/svg">
<rect x="0.444444" y="0.444444" width="23.1111" height="23.1111" rx="3.55556" fill="white"/>
<rect x="0.444444" y="0.444444" width="23.1111" height="23.1111" rx="3.55556" stroke="#D4D7DD" stroke-width="0.888889"/>
<path d="M18.9528 18.5972C18.9247 18.5295 18.8836 18.4679 18.8317 18.4161C18.7798 18.3642 18.7183 18.323 18.6506 18.2949C18.5828 18.2669 18.5102 18.2524 18.4368 18.2524C18.3635 18.2524 18.2909 18.2669 18.2231 18.2949C18.1554 18.323 18.0939 18.3642 18.042 18.4161L17.3207 19.1382V16.0203C17.3207 15.8723 17.2619 15.7303 17.1573 15.6256C17.0526 15.521 16.9107 15.4622 16.7627 15.4622C16.6147 15.4622 16.4727 15.521 16.3681 15.6256C16.2634 15.7303 16.2046 15.8723 16.2046 16.0203V19.1382L15.4833 18.4161C15.3786 18.3114 15.2366 18.2525 15.0885 18.2525C14.9404 18.2525 14.7984 18.3114 14.6937 18.4161C14.589 18.5208 14.5302 18.6629 14.5302 18.811C14.5302 18.9591 14.589 19.1011 14.6937 19.2059L16.3679 20.8803C16.4197 20.9322 16.4812 20.9733 16.549 21.0014C16.6167 21.0295 16.6893 21.044 16.7627 21.044C16.836 21.044 16.9086 21.0295 16.9764 21.0014C17.0441 20.9733 17.1057 20.9322 17.1575 20.8803L18.8317 19.2059C18.8836 19.154 18.9247 19.0925 18.9528 19.0247C18.9809 18.957 18.9953 18.8843 18.9953 18.811C18.9953 18.7376 18.9809 18.665 18.9528 18.5972Z" fill="#778292"/>
<path d="M13.6007 5.04395C13.674 5.04389 13.7469 5.05797 13.8146 5.08594C13.8823 5.11395 13.9444 5.15522 13.9962 5.20703L17.9025 9.11426C17.9541 9.16604 17.9956 9.22733 18.0236 9.29492C18.0515 9.3626 18.0656 9.43556 18.0656 9.50879V14.7188H16.9493V10.0674H13.6007C13.4528 10.0673 13.3108 10.0079 13.2062 9.90332C13.1017 9.79868 13.0431 9.65668 13.0431 9.50879V6.16016H6.90442V18.4395H13.2296V19.5557H6.90442C6.60846 19.5557 6.32466 19.4378 6.11536 19.2285C5.9061 19.0192 5.78827 18.7354 5.78821 18.4395V6.16016C5.78822 5.86413 5.90606 5.58042 6.11536 5.37109C6.32467 5.16177 6.60842 5.04395 6.90442 5.04395H13.6007ZM14.1593 8.95117H16.1603L14.1593 6.94922V8.95117Z" fill="#778292"/>
<path d="M11.7246 12.5227L12.8994 10.6282H14.0381L13.917 10.8235L12.3145 13.4075L14.001 15.9377L14.1807 16.2063H13.0176L11.7549 14.3108L10.5801 16.2063H9.44238L9.56348 16.012L11.165 13.426L9.47852 10.8967L9.29883 10.6282H10.4619L11.7246 12.5227Z" fill="#778292"/>
</svg>
