<svg width="24" height="24" viewBox="0 0 24 24" fill="none" xmlns="http://www.w3.org/2000/svg">
<path d="M20.6933 20.2123C20.6556 20.1213 20.6003 20.0385 20.5306 19.9689C20.4609 19.8992 20.3782 19.8438 20.2871 19.8061C20.1961 19.7683 20.0985 19.7489 19.9999 19.7489C19.9014 19.7489 19.8038 19.7683 19.7127 19.8061C19.6217 19.8438 19.539 19.8992 19.4693 19.9689L18.4999 20.9392V16.7495C18.4999 16.5506 18.4209 16.3598 18.2803 16.2192C18.1396 16.0785 17.9488 15.9995 17.7499 15.9995C17.551 15.9995 17.3602 16.0785 17.2196 16.2192C17.0789 16.3598 16.9999 16.5506 16.9999 16.7495V20.9392L16.0306 19.9689C15.8898 19.8282 15.699 19.7491 15.4999 19.7491C15.3009 19.7491 15.11 19.8282 14.9693 19.9689C14.8286 20.1096 14.7495 20.3005 14.7495 20.4995C14.7495 20.6985 14.8286 20.8894 14.9693 21.0301L17.2193 23.2801C17.289 23.3499 17.3717 23.4052 17.4627 23.4429C17.5538 23.4807 17.6514 23.5001 17.7499 23.5001C17.8485 23.5001 17.9461 23.4807 18.0371 23.4429C18.1282 23.4052 18.2109 23.3499 18.2806 23.2801L20.5306 21.0301C20.6003 20.9605 20.6556 20.8778 20.6933 20.7867C20.7311 20.6957 20.7505 20.5981 20.7505 20.4995C20.7505 20.4009 20.7311 20.3034 20.6933 20.2123Z" fill="black"/>
<path d="M13.5 2C13.5985 1.99992 13.6961 2.01903 13.7871 2.05664C13.8782 2.09428 13.9606 2.1501 14.0303 2.21973L19.2803 7.46973C19.3499 7.53943 19.4057 7.62184 19.4434 7.71289C19.481 7.8039 19.5001 7.90152 19.5 8V15H18V8.75H13.5C13.3011 8.75 13.1104 8.67093 12.9697 8.53027C12.8291 8.38962 12.75 8.19891 12.75 8V3.5H4.5V20H13V21.5H4.5C4.10218 21.5 3.72076 21.3419 3.43945 21.0605C3.15815 20.7792 3 20.3978 3 20V3.5C3 3.10218 3.15815 2.72076 3.43945 2.43945C3.72076 2.15815 4.10218 2 4.5 2H13.5ZM14.25 7.25H16.9395L14.25 4.56055V7.25Z" fill="black"/>
<path d="M10.9795 12.0498L12.5576 9.50391H14.0879L13.9258 9.76562L11.7725 13.2383L14.0391 16.6387L14.2793 16.999H12.7158L11.0195 14.4531L9.44043 16.999H7.91113L8.07324 16.7373L10.2266 13.2637L7.95996 9.86426L7.71973 9.50391H9.28223L10.9795 12.0498Z" fill="black"/>
</svg>
