<svg width="25" height="24" viewBox="0 0 25 24" fill="none" xmlns="http://www.w3.org/2000/svg">
<path d="M12.5 2.25C12.8976 2.25 13.2793 2.4074 13.5605 2.68848L22.7803 11.9062C22.9213 12.047 23.0008 12.2383 23.001 12.4375C23.0011 12.6366 22.9219 12.8279 22.7812 12.9688C22.6406 13.1095 22.4499 13.1882 22.251 13.1885C22.0519 13.1887 21.8607 13.1102 21.7197 12.9697L21.5 12.75V19.5H23C23.1989 19.5 23.3896 19.5791 23.5303 19.7197C23.6709 19.8604 23.75 20.0511 23.75 20.25C23.75 20.4489 23.6709 20.6396 23.5303 20.7803C23.3896 20.9209 23.1989 21 23 21H2C1.80109 21 1.61038 20.9209 1.46973 20.7803C1.32907 20.6396 1.25 20.4489 1.25 20.25C1.25 20.0511 1.32908 19.8604 1.46973 19.7197C1.61038 19.5791 1.80109 19.5 2 19.5H3.5V12.75L3.28027 12.9668C3.1397 13.1073 2.9488 13.1864 2.75 13.1865C2.55118 13.1865 2.36038 13.1073 2.21973 12.9668C2.07911 12.8262 2.00009 12.6354 2 12.4365C1.99997 12.2377 2.07917 12.0469 2.21973 11.9062L11.4395 2.68848C11.7207 2.4074 12.1024 2.25 12.5 2.25ZM5 11.25V19.5H20V11.25L12.5 3.75L5 11.25Z" fill="black"/>
<path d="M9.58496 12.5703V16.8125H8.90527L6.89551 13.9121H6.86035V16.8125H6.09863V12.5703H6.79004L8.78809 15.4707H8.8291V12.5703H9.58496ZM10.3701 16.8125V12.5703H13.1299V13.209H11.1318V14.3691H12.9834V15.0078H11.1318V16.168H13.1416V16.8125H10.3701ZM14.7588 16.8125L13.5635 12.5703H14.3838L15.1514 15.6934H15.1924L16.0068 12.5703H16.7568L17.5771 15.6992H17.6123L18.3799 12.5703H19.2002L18.0049 16.8125H17.249L16.3994 13.8301H16.3701L15.5146 16.8125H14.7588Z" fill="black"/>
</svg>
