<svg width="32" height="33" viewBox="0 0 32 33" fill="none" xmlns="http://www.w3.org/2000/svg">
<g clip-path="url(#clip0_1139_11193)">
<mask id="mask0_1139_11193" style="mask-type:luminance" maskUnits="userSpaceOnUse" x="0" y="0" width="32" height="33">
<path d="M32 0.5H0V32.5H32V0.5Z" fill="white"/>
</mask>
<g mask="url(#mask0_1139_11193)">
<path d="M15.9404 32.4978H30.1197C31.1593 32.4978 32.002 31.6552 32.002 30.6157V12.6593C32.002 12.0432 31.7005 11.4662 31.1947 11.1143L17.0197 1.25126C16.3714 0.800213 15.5105 0.801797 14.8639 1.25523L0.805903 11.1139C0.303508 11.4662 0.00439453 12.0413 0.00439453 12.6549V30.6157C0.00439453 31.6552 0.847089 32.4978 1.8866 32.4978H15.9404Z" fill="#E5E9F0"/>
<path d="M15.9404 32.4978H30.1197C31.1593 32.4978 32.002 31.6552 32.002 30.6157V12.6593C32.002 12.0432 31.7005 11.4662 31.1947 11.1143L17.0197 1.25126C16.3714 0.800213 15.5105 0.801797 14.8639 1.25523L0.805903 11.1139C0.303508 11.4662 0.00439453 12.0413 0.00439453 12.6549V19.3076L15.9404 32.4978Z" fill="url(#paint0_linear_1139_11193)"/>
<g filter="url(#filter0_d_1139_11193)">
<mask id="mask1_1139_11193" style="mask-type:alpha" maskUnits="userSpaceOnUse" x="-1" y="19" width="18" height="14">
<path d="M-0.00146484 19.3003H14.1208C15.1603 19.3003 16.003 20.143 16.003 21.1826V32.5003H-0.00146484V31.5156V19.3003Z" fill="#E5E9F0"/>
</mask>
<g mask="url(#mask1_1139_11193)">
<path d="M15.9399 32.4978H30.1192C31.1588 32.4978 32.0015 31.6552 32.0015 30.6157V12.6593C32.0015 12.0432 31.7 11.4662 31.1942 11.1143L17.0192 1.25126C16.3709 0.800213 15.5101 0.801797 14.8635 1.25523L0.805414 11.1139C0.303019 11.4662 0.00390625 12.0413 0.00390625 12.6549V19.3076L15.9399 32.4978Z" fill="#90AEEB"/>
</g>
</g>
</g>
</g>
<defs>
<filter id="filter0_d_1139_11193" x="-16.9359" y="-7.05056" width="59.2897" height="56.4884" filterUnits="userSpaceOnUse" color-interpolation-filters="sRGB">
<feFlood flood-opacity="0" result="BackgroundImageFix"/>
<feColorMatrix in="SourceAlpha" type="matrix" values="0 0 0 0 0 0 0 0 0 0 0 0 0 0 0 0 0 0 127 0" result="hardAlpha"/>
<feOffset dx="4.70552" dy="-4.70552"/>
<feGaussianBlur stdDeviation="10.8227"/>
<feComposite in2="hardAlpha" operator="out"/>
<feColorMatrix type="matrix" values="0 0 0 0 0 0 0 0 0 0 0 0 0 0 0 0 0 0 0.2 0"/>
<feBlend mode="normal" in2="BackgroundImageFix" result="effect1_dropShadow_1139_11193"/>
<feBlend mode="normal" in="SourceGraphic" in2="effect1_dropShadow_1139_11193" result="shape"/>
</filter>
<linearGradient id="paint0_linear_1139_11193" x1="16.0032" y1="0.500325" x2="16.0032" y2="32.4978" gradientUnits="userSpaceOnUse">
<stop stop-color="#90AEEB"/>
<stop offset="1" stop-color="#3172F5"/>
</linearGradient>
<clipPath id="clip0_1139_11193">
<rect width="32" height="32" fill="white" transform="translate(0 0.5)"/>
</clipPath>
</defs>
</svg>
