<svg width="17" height="17" viewBox="0 0 17 17" fill="none" xmlns="http://www.w3.org/2000/svg">
<path d="M14.8075 3.60563C14.7476 3.55896 14.6779 3.52655 14.6036 3.51085C14.5293 3.49515 14.4524 3.49657 14.3788 3.51501L10.5581 4.47001L6.72375 2.55251C6.61692 2.49922 6.49454 2.48592 6.37875 2.51501L2.37875 3.51501C2.27058 3.54205 2.17455 3.60446 2.10593 3.69234C2.0373 3.78022 2.00002 3.88851 2 4.00001V13C2.00001 13.076 2.01734 13.151 2.05066 13.2192C2.08398 13.2875 2.13243 13.3473 2.19232 13.3941C2.2522 13.4408 2.32196 13.4733 2.39628 13.4891C2.4706 13.5048 2.54754 13.5034 2.62125 13.485L6.44188 12.53L10.2763 14.4475C10.3459 14.4818 10.4224 14.4998 10.5 14.5C10.5409 14.5 10.5816 14.4949 10.6213 14.485L14.6213 13.485C14.7294 13.458 14.8254 13.3956 14.8941 13.3077C14.9627 13.2198 15 13.1115 15 13V4.00001C15 3.92396 14.9827 3.84891 14.9493 3.78057C14.916 3.71223 14.8675 3.6524 14.8075 3.60563ZM7 3.80876L10 5.30876V13.1913L7 11.6913V3.80876ZM3 4.39063L6 3.64063V11.6094L3 12.3594V4.39063ZM14 12.6094L11 13.3594V5.39063L14 4.64063V12.6094Z" fill="#949CA8"/>
</svg>
