<svg width="12" height="2" viewBox="0 0 12 2" fill="none" xmlns="http://www.w3.org/2000/svg">
<path d="M6.46875 1.09375C6.46875 1.26063 6.41927 1.42376 6.32655 1.56251C6.23384 1.70127 6.10206 1.80941 5.94789 1.87327C5.79371 1.93713 5.62406 1.95384 5.46039 1.92129C5.29672 1.88873 5.14638 1.80837 5.02838 1.69037C4.91038 1.57237 4.83002 1.42203 4.79746 1.25836C4.76491 1.09469 4.78162 0.925036 4.84548 0.770861C4.90934 0.616686 5.01748 0.48491 5.15624 0.392197C5.29499 0.299485 5.45812 0.25 5.625 0.25C5.84878 0.25 6.06339 0.338895 6.22162 0.497128C6.37986 0.655362 6.46875 0.869973 6.46875 1.09375ZM10.4062 0.25C10.2394 0.25 10.0762 0.299485 9.93749 0.392197C9.79873 0.48491 9.69059 0.616686 9.62673 0.770861C9.56287 0.925036 9.54616 1.09469 9.57871 1.25836C9.61127 1.42203 9.69163 1.57237 9.80963 1.69037C9.92763 1.80837 10.078 1.88873 10.2416 1.92129C10.4053 1.95384 10.575 1.93713 10.7291 1.87327C10.8833 1.80941 11.0151 1.70127 11.1078 1.56251C11.2005 1.42376 11.25 1.26063 11.25 1.09375C11.25 0.869973 11.1611 0.655362 11.0029 0.497128C10.8446 0.338895 10.63 0.25 10.4062 0.25ZM0.84375 0.25C0.676872 0.25 0.513742 0.299485 0.374988 0.392197C0.236234 0.48491 0.128088 0.616686 0.064227 0.770861C0.000365585 0.925036 -0.0163435 1.09469 0.0162128 1.25836C0.0487691 1.42203 0.129128 1.57237 0.247129 1.69037C0.36513 1.80837 0.515472 1.88873 0.679143 1.92129C0.842815 1.95384 1.01246 1.93713 1.16664 1.87327C1.32081 1.80941 1.45259 1.70127 1.5453 1.56251C1.63802 1.42376 1.6875 1.26063 1.6875 1.09375C1.6875 0.869973 1.59861 0.655362 1.44037 0.497128C1.28214 0.338895 1.06753 0.25 0.84375 0.25Z" fill="#778292"/>
</svg>
