<svg width="24" height="24" viewBox="0 0 24 24" fill="none" xmlns="http://www.w3.org/2000/svg">
<path d="M12.625 12.125C12.625 12.3475 12.559 12.565 12.4354 12.75C12.3118 12.935 12.1361 13.0792 11.9305 13.1644C11.725 13.2495 11.4988 13.2718 11.2805 13.2284C11.0623 13.185 10.8618 13.0778 10.7045 12.9205C10.5472 12.7632 10.44 12.5627 10.3966 12.3445C10.3532 12.1262 10.3755 11.9 10.4606 11.6945C10.5458 11.4889 10.69 11.3132 10.875 11.1896C11.06 11.066 11.2775 11 11.5 11C11.7984 11 12.0845 11.1185 12.2955 11.3295C12.5065 11.5405 12.625 11.8266 12.625 12.125ZM17.875 11C17.6525 11 17.435 11.066 17.25 11.1896C17.065 11.3132 16.9208 11.4889 16.8356 11.6945C16.7505 11.9 16.7282 12.1262 16.7716 12.3445C16.815 12.5627 16.9222 12.7632 17.0795 12.9205C17.2368 13.0778 17.4373 13.185 17.6555 13.2284C17.8738 13.2718 18.1 13.2495 18.3055 13.1644C18.5111 13.0792 18.6868 12.935 18.8104 12.75C18.934 12.565 19 12.3475 19 12.125C19 11.8266 18.8815 11.5405 18.6705 11.3295C18.4595 11.1185 18.1734 11 17.875 11ZM5.125 11C4.9025 11 4.68499 11.066 4.49998 11.1896C4.31498 11.3132 4.17078 11.4889 4.08564 11.6945C4.00049 11.9 3.97821 12.1262 4.02162 12.3445C4.06503 12.5627 4.17217 12.7632 4.32951 12.9205C4.48684 13.0778 4.6873 13.185 4.90552 13.2284C5.12375 13.2718 5.34995 13.2495 5.55552 13.1644C5.76109 13.0792 5.93679 12.935 6.0604 12.75C6.18402 12.565 6.25 12.3475 6.25 12.125C6.25 11.8266 6.13147 11.5405 5.9205 11.3295C5.70952 11.1185 5.42337 11 5.125 11Z" fill="black"/>
</svg>
