<svg width="24" height="24" viewBox="0 0 24 24" fill="none" xmlns="http://www.w3.org/2000/svg">
<path d="M18.5719 5.86789C18.0294 4.5725 17.1161 3.46633 15.9468 2.68837C14.7775 1.91041 13.4044 1.49536 12 1.49536C10.5956 1.49536 9.2225 1.91041 8.05323 2.68837C6.88397 3.46633 5.97069 4.5725 5.42815 5.86789C4.25647 6.40343 3.26333 7.26434 2.56693 8.34816C1.87054 9.43197 1.50021 10.6931 1.50002 11.9813C1.49065 15.5626 4.50002 18.6563 8.07565 18.7501C9.17546 18.7766 10.2651 18.5343 11.25 18.0441V21.7501C11.25 21.949 11.329 22.1398 11.4697 22.2804C11.6103 22.4211 11.8011 22.5001 12 22.5001C12.1989 22.5001 12.3897 22.4211 12.5304 22.2804C12.671 22.1398 12.75 21.949 12.75 21.7501V18.0441C13.6824 18.5071 14.709 18.7487 15.75 18.7501H15.9206C19.5 18.6563 22.5103 15.5626 22.5 11.9813C22.4998 10.6931 22.1295 9.43197 21.4331 8.34816C20.7367 7.26434 19.7436 6.40343 18.5719 5.86789ZM15.886 17.2501C14.7675 17.2792 13.669 16.9508 12.75 16.3126V12.4688L16.8356 10.427C16.9238 10.3829 17.0024 10.3219 17.067 10.2474C17.1315 10.173 17.1808 10.0865 17.212 9.99303C17.2432 9.89953 17.2556 9.80081 17.2486 9.7025C17.2416 9.6042 17.2153 9.50823 17.1713 9.42008C17.1272 9.33193 17.0662 9.25332 16.9917 9.18875C16.9173 9.12418 16.8308 9.0749 16.7373 9.04374C16.6438 9.01257 16.5451 9.00013 16.4468 9.00711C16.3485 9.0141 16.2525 9.04038 16.1644 9.08446L12.75 10.787V8.25008C12.75 8.05117 12.671 7.8604 12.5304 7.71975C12.3897 7.5791 12.1989 7.50008 12 7.50008C11.8011 7.50008 11.6103 7.5791 11.4697 7.71975C11.329 7.8604 11.25 8.05117 11.25 8.25008V13.037L7.83565 11.3288C7.65762 11.2398 7.45153 11.2252 7.2627 11.2881C7.07387 11.3511 6.91779 11.4864 6.82877 11.6645C6.73976 11.8425 6.72511 12.0486 6.78805 12.2374C6.851 12.4262 6.98637 12.5823 7.1644 12.6713L11.25 14.7132V16.307C10.3313 16.9456 9.23259 17.2741 8.11409 17.2445C5.3344 17.1779 2.99252 14.7676 3.00002 11.9851C2.99931 10.9386 3.31263 9.91603 3.89945 9.04959C4.48627 8.18315 5.31958 7.51274 6.29158 7.12508C6.38909 7.08593 6.47729 7.02672 6.55045 6.9513C6.62361 6.87587 6.6801 6.78592 6.71627 6.68727C7.11188 5.60388 7.83095 4.66829 8.77607 4.00725C9.72119 3.34621 10.8467 2.99167 12 2.99167C13.1534 2.99167 14.2789 3.34621 15.224 4.00725C16.1691 4.66829 16.8882 5.60388 17.2838 6.68727C17.3199 6.78592 17.3764 6.87587 17.4496 6.9513C17.5228 7.02672 17.611 7.08593 17.7085 7.12508C18.6803 7.51295 19.5135 8.18342 20.1003 9.04981C20.6871 9.9162 21.0005 10.9387 21 11.9851C21.0075 14.7676 18.6656 17.1779 15.886 17.2501Z" fill="black"/>
</svg>
