<svg width="24" height="24" viewBox="0 0 24 24" fill="none" xmlns="http://www.w3.org/2000/svg">
<path d="M22.4727 11.7188L20.9333 3.46884C20.8957 3.26774 20.8173 3.07647 20.7031 2.90677C20.5888 2.73708 20.441 2.59255 20.2688 2.48209C20.0966 2.37162 19.9036 2.29755 19.7018 2.26442C19.4999 2.2313 19.2933 2.23982 19.0949 2.28947L19.0658 2.2979L14.1421 3.75009H9.85769L4.93394 2.30259L4.90488 2.29415C4.70641 2.24451 4.49988 2.23598 4.298 2.26911C4.09611 2.30224 3.90314 2.37631 3.73094 2.48678C3.55874 2.59724 3.41096 2.74177 3.29668 2.91146C3.18241 3.08115 3.10406 3.27243 3.06644 3.47353L1.52707 11.7188C1.46124 12.0491 1.5101 12.3919 1.66557 12.6905C1.82105 12.9892 2.07381 13.2259 2.38207 13.3613C2.57948 13.4519 2.79395 13.4992 3.01113 13.5001C3.27107 13.5 3.52621 13.43 3.74988 13.2976V17.2501C3.74988 18.2447 4.14497 19.1985 4.84823 19.9017C5.55149 20.605 6.50532 21.0001 7.49988 21.0001H16.4999C17.4944 21.0001 18.4483 20.605 19.1515 19.9017C19.8548 19.1985 20.2499 18.2447 20.2499 17.2501V13.2985C20.4733 13.4307 20.7281 13.5006 20.9877 13.501C21.2051 13.5004 21.4199 13.4534 21.6177 13.3632C21.9263 13.2277 22.1793 12.9907 22.3348 12.6916C22.4903 12.3926 22.539 12.0493 22.4727 11.7188ZM2.99988 12.0001L4.54019 3.75009L8.48425 4.90978L2.99988 12.0001ZM16.4999 19.5001H12.7499V18.3104L14.0305 17.0307C14.1712 16.89 14.2503 16.6991 14.2503 16.5001C14.2503 16.3011 14.1712 16.1102 14.0305 15.9695C13.8898 15.8287 13.6989 15.7497 13.4999 15.7497C13.3009 15.7497 13.11 15.8287 12.9693 15.9695L11.9999 16.9398L11.0305 15.9695C10.8898 15.8287 10.6989 15.7497 10.4999 15.7497C10.3009 15.7497 10.11 15.8287 9.96925 15.9695C9.82852 16.1102 9.74946 16.3011 9.74946 16.5001C9.74946 16.6991 9.82852 16.89 9.96925 17.0307L11.2499 18.3104V19.5001H7.49988C6.90314 19.5001 6.33084 19.263 5.90889 18.8411C5.48693 18.4191 5.24988 17.8468 5.24988 17.2501V11.5417L10.1174 5.25009H13.8814L18.7499 11.5417V17.2501C18.7499 17.8468 18.5128 18.4191 18.0909 18.8411C17.6689 19.263 17.0966 19.5001 16.4999 19.5001ZM20.9999 12.0001L15.5155 4.90978L19.4596 3.75009L20.9999 12.0001ZM9.74988 13.1251C9.74988 13.3476 9.6839 13.5651 9.56028 13.7501C9.43667 13.9351 9.26096 14.0793 9.0554 14.1645C8.84983 14.2496 8.62363 14.2719 8.4054 14.2285C8.18717 14.1851 7.98672 14.0779 7.82938 13.9206C7.67205 13.7633 7.5649 13.5628 7.52149 13.3446C7.47809 13.1263 7.50037 12.9001 7.58551 12.6946C7.67066 12.489 7.81486 12.3133 7.99986 12.1897C8.18487 12.0661 8.40237 12.0001 8.62488 12.0001C8.92325 12.0001 9.2094 12.1186 9.42037 12.3296C9.63135 12.5406 9.74988 12.8267 9.74988 13.1251ZM16.4999 13.1251C16.4999 13.3476 16.4339 13.5651 16.3103 13.7501C16.1867 13.9351 16.011 14.0793 15.8054 14.1645C15.5998 14.2496 15.3736 14.2719 15.1554 14.2285C14.9372 14.1851 14.7367 14.0779 14.5794 13.9206C14.422 13.7633 14.3149 13.5628 14.2715 13.3446C14.2281 13.1263 14.2504 12.9001 14.3355 12.6946C14.4207 12.489 14.5649 12.3133 14.7499 12.1897C14.9349 12.0661 15.1524 12.0001 15.3749 12.0001C15.6732 12.0001 15.9594 12.1186 16.1704 12.3296C16.3814 12.5406 16.4999 12.8267 16.4999 13.1251Z" fill="black"/>
</svg>
