<svg width="25" height="24" viewBox="0 0 25 24" fill="none" xmlns="http://www.w3.org/2000/svg">
<path d="M22.8115 6.87846L17.8718 1.93971C17.7325 1.80038 17.5671 1.68986 17.3851 1.61446C17.2031 1.53905 17.008 1.50024 16.811 1.50024C16.614 1.50024 16.4189 1.53905 16.2369 1.61446C16.0549 1.68986 15.8895 1.80038 15.7502 1.93971L2.68897 15C2.54965 15.1393 2.43913 15.3047 2.36373 15.4867C2.28832 15.6687 2.24951 15.8638 2.24951 16.0608C2.24951 16.2578 2.28832 16.4529 2.36373 16.6349C2.43913 16.8169 2.54965 16.9823 2.68897 17.1216L7.62866 22.0603C7.76795 22.1997 7.93333 22.3102 8.11534 22.3856C8.29735 22.461 8.49243 22.4998 8.68944 22.4998C8.88645 22.4998 9.08154 22.461 9.26355 22.3856C9.44556 22.3102 9.61093 22.1997 9.75022 22.0603L22.8115 9.00002C22.9508 8.86072 23.0613 8.69535 23.1367 8.51334C23.2121 8.33133 23.2509 8.13625 23.2509 7.93924C23.2509 7.74222 23.2121 7.54714 23.1367 7.36513C23.0613 7.18312 22.9508 7.01775 22.8115 6.87846ZM8.68897 21L3.75022 16.0603L6.75022 13.0603L9.2196 15.5306C9.28928 15.6003 9.37201 15.6556 9.46305 15.6933C9.5541 15.731 9.65168 15.7504 9.75022 15.7504C9.84877 15.7504 9.94635 15.731 10.0374 15.6933C10.1284 15.6556 10.2112 15.6003 10.2808 15.5306C10.3505 15.461 10.4058 15.3782 10.4435 15.2872C10.4812 15.1961 10.5006 15.0986 10.5006 15C10.5006 14.9015 10.4812 14.8039 10.4435 14.7128C10.4058 14.6218 10.3505 14.5391 10.2808 14.4694L7.81054 12L9.75022 10.0603L12.2196 12.5306C12.3603 12.6714 12.5512 12.7504 12.7502 12.7504C12.9492 12.7504 13.1401 12.6714 13.2808 12.5306C13.4216 12.3899 13.5006 12.199 13.5006 12C13.5006 11.801 13.4216 11.6101 13.2808 11.4694L10.8105 9.00002L12.7502 7.06033L15.2196 9.53064C15.2893 9.60033 15.372 9.6556 15.4631 9.69331C15.5541 9.73102 15.6517 9.75043 15.7502 9.75043C15.8488 9.75043 15.9464 9.73102 16.0374 9.69331C16.1284 9.6556 16.2112 9.60033 16.2808 9.53064C16.3505 9.46096 16.4058 9.37823 16.4435 9.28719C16.4812 9.19615 16.5006 9.09856 16.5006 9.00002C16.5006 8.90147 16.4812 8.80389 16.4435 8.71284C16.4058 8.6218 16.3505 8.53907 16.2808 8.46939L13.8105 6.00002L16.8105 3.00002L21.7502 7.9397L8.68897 21Z" fill="black"/>
</svg>
