<svg width="20" height="20" viewBox="0 0 20 20" fill="none" xmlns="http://www.w3.org/2000/svg">
<path d="M17.3819 16.5596L13.7459 12.9244C14.7998 11.6592 15.3253 10.0364 15.2131 8.39362C15.101 6.75084 14.3598 5.21454 13.1438 4.1043C11.9277 2.99407 10.3305 2.39539 8.68432 2.43281C7.03813 2.47022 5.46974 3.14084 4.30541 4.30517C3.14109 5.4695 2.47046 7.03789 2.43305 8.68407C2.39564 10.3303 2.99432 11.9275 4.10455 13.1435C5.21478 14.3595 6.75108 15.1007 8.39387 15.2129C10.0367 15.325 11.6594 14.7995 12.9246 13.7457L16.5599 17.3816C16.6138 17.4356 16.6779 17.4784 16.7484 17.5076C16.8189 17.5368 16.8945 17.5519 16.9709 17.5519C17.0472 17.5519 17.1228 17.5368 17.1933 17.5076C17.2638 17.4784 17.3279 17.4356 17.3819 17.3816C17.4359 17.3277 17.4787 17.2636 17.5079 17.1931C17.5371 17.1225 17.5521 17.047 17.5521 16.9706C17.5521 16.8943 17.5371 16.8187 17.5079 16.7482C17.4787 16.6777 17.4359 16.6136 17.3819 16.5596ZM3.60932 8.83751C3.60932 7.80342 3.91596 6.79256 4.49047 5.93275C5.06498 5.07294 5.88155 4.40279 6.83692 4.00707C7.79229 3.61134 8.84355 3.5078 9.85777 3.70954C10.872 3.91128 11.8036 4.40924 12.5348 5.14045C13.266 5.87166 13.764 6.80327 13.9657 7.81749C14.1675 8.83171 14.0639 9.88297 13.6682 10.8383C13.2725 11.7937 12.6023 12.6103 11.7425 13.1848C10.8827 13.7593 9.87184 14.0659 8.83775 14.0659C7.45156 14.0644 6.12258 13.5131 5.14239 12.5329C4.1622 11.5527 3.61086 10.2237 3.60932 8.83751Z" fill="#949CA8"/>
</svg>
