<svg width="24" height="24" viewBox="0 0 24 24" fill="none" xmlns="http://www.w3.org/2000/svg">
<path d="M20.8583 19.8715L16.4952 15.5093C17.7598 13.991 18.3904 12.0437 18.2558 10.0723C18.1212 8.101 17.2318 6.25744 15.7726 4.92516C14.3133 3.59289 12.3966 2.87447 10.4212 2.91937C8.44581 2.96426 6.56374 3.76901 5.16655 5.1662C3.76935 6.5634 2.9646 8.44546 2.91971 10.4209C2.87481 12.3963 3.59323 14.313 4.92551 15.7722C6.25778 17.2314 8.10135 18.1209 10.0727 18.2555C12.044 18.39 13.9914 17.7594 15.5096 16.4948L19.8719 20.858C19.9366 20.9227 20.0135 20.9741 20.0982 21.0092C20.1828 21.0442 20.2735 21.0623 20.3651 21.0623C20.4567 21.0623 20.5474 21.0442 20.632 21.0092C20.7166 20.9741 20.7935 20.9227 20.8583 20.858C20.9231 20.7932 20.9744 20.7163 21.0095 20.6317C21.0446 20.547 21.0626 20.4563 21.0626 20.3647C21.0626 20.2731 21.0446 20.1824 21.0095 20.0978C20.9744 20.0132 20.9231 19.9363 20.8583 19.8715ZM4.33123 10.605C4.33123 9.3641 4.6992 8.15107 5.38861 7.11929C6.07802 6.08752 7.0579 5.28335 8.20435 4.80848C9.35079 4.33361 10.6123 4.20936 11.8294 4.45145C13.0464 4.69353 14.1644 5.29109 15.0418 6.16854C15.9193 7.04599 16.5168 8.16393 16.7589 9.38099C17.001 10.598 16.8768 11.8596 16.4019 13.006C15.927 14.1525 15.1228 15.1323 14.0911 15.8217C13.0593 16.5112 11.8463 16.8791 10.6053 16.8791C8.94192 16.8773 7.34714 16.2157 6.17092 15.0394C4.99469 13.8632 4.33308 12.2684 4.33123 10.605Z" fill="black"/>
</svg>
