<svg width="24" height="24" viewBox="0 0 24 24" fill="none" xmlns="http://www.w3.org/2000/svg">
<path d="M21.3112 2.68875C21.1226 2.50025 20.8871 2.36544 20.629 2.2982C20.371 2.23097 20.0997 2.23375 19.843 2.30625H19.829L1.83461 7.76625C1.54248 7.85044 1.28283 8.02141 1.09007 8.2565C0.897302 8.4916 0.780525 8.77972 0.75521 9.08268C0.729895 9.38565 0.797238 9.68915 0.948314 9.95298C1.09939 10.2168 1.32707 10.4285 1.60117 10.56L9.56242 14.4375L13.4343 22.3941C13.5547 22.6511 13.7462 22.8682 13.9861 23.0199C14.226 23.1716 14.5042 23.2514 14.788 23.25C14.8312 23.25 14.8743 23.2481 14.9174 23.2444C15.2201 23.2199 15.5081 23.1033 15.7427 22.9105C15.9773 22.7176 16.1473 22.4576 16.2299 22.1653L21.6862 4.17094C21.6862 4.16625 21.6862 4.16156 21.6862 4.15687C21.7596 3.9009 21.7636 3.62999 21.6977 3.37198C21.6318 3.11396 21.4984 2.87814 21.3112 2.68875ZM14.7965 21.7359L14.7918 21.7491V21.7425L11.0362 14.0269L15.5362 9.52687C15.6709 9.38508 15.7449 9.19626 15.7424 9.00069C15.7399 8.80512 15.6611 8.61826 15.5228 8.47996C15.3845 8.34166 15.1976 8.26286 15.002 8.26035C14.8065 8.25785 14.6177 8.33184 14.4759 8.46656L9.97586 12.9666L2.25742 9.21093H2.25086H2.26399L20.2499 3.75L14.7965 21.7359Z" fill="black"/>
</svg>
