<svg width="24" height="25" viewBox="0 0 24 25" fill="none" xmlns="http://www.w3.org/2000/svg">
<path d="M18.75 2.75024H5.25C4.85218 2.75024 4.47064 2.90828 4.18934 3.18958C3.90804 3.47089 3.75 3.85242 3.75 4.25024V20.7502C3.75 21.1481 3.90804 21.5296 4.18934 21.8109C4.47064 22.0922 4.85218 22.2502 5.25 22.2502H18.75C19.1478 22.2502 19.5294 22.0922 19.8107 21.8109C20.092 21.5296 20.25 21.1481 20.25 20.7502V4.25024C20.25 3.85242 20.092 3.47089 19.8107 3.18958C19.5294 2.90828 19.1478 2.75024 18.75 2.75024ZM14.25 14.0002H18.75V16.2502H10.5V14.0002H14.25ZM15 12.5002V10.2502H18.75V12.5002H15ZM18.75 4.25024V8.75024H14.25C14.0511 8.75024 13.8603 8.82926 13.7197 8.96991C13.579 9.11057 13.5 9.30133 13.5 9.50024V12.5002H9.75C9.55109 12.5002 9.36032 12.5793 9.21967 12.7199C9.07902 12.8606 9 13.0513 9 13.2502V16.2502H5.25V4.25024H18.75ZM18.75 20.7502H5.25V17.7502H18.75V20.7502Z" fill="black"/>
</svg>
