<svg width="19" height="18" viewBox="0 0 19 18" fill="none" xmlns="http://www.w3.org/2000/svg">
<path d="M16.9066 8.63709L13.7425 11.3673L14.7065 15.4504C14.7597 15.672 14.746 15.9045 14.6671 16.1183C14.5883 16.3322 14.4478 16.5179 14.2635 16.652C14.0791 16.7861 13.8592 16.8625 13.6314 16.8716C13.4037 16.8808 13.1783 16.8222 12.9838 16.7033L9.43306 14.518L5.88017 16.7033C5.68571 16.8215 5.46062 16.8795 5.23325 16.8701C5.00589 16.8606 4.78641 16.784 4.60245 16.6501C4.4185 16.5161 4.27829 16.3307 4.19949 16.1172C4.12069 15.9038 4.10682 15.6717 4.15962 15.4504L5.12712 11.3673L1.96306 8.63709C1.79101 8.48839 1.66657 8.29229 1.6053 8.07329C1.54403 7.85429 1.54863 7.62209 1.61854 7.40569C1.68845 7.18929 1.82056 6.99828 1.99838 6.85651C2.1762 6.71475 2.39184 6.62851 2.61837 6.60857L6.76681 6.27389L8.36712 2.40107C8.45374 2.19001 8.60117 2.00947 8.79067 1.88241C8.98016 1.75534 9.20315 1.6875 9.4313 1.6875C9.65945 1.6875 9.88245 1.75534 10.0719 1.88241C10.2614 2.00947 10.4089 2.19001 10.4955 2.40107L12.0951 6.27389L16.2435 6.60857C16.4705 6.62777 16.6868 6.71353 16.8652 6.85509C17.0437 6.99666 17.1764 7.18775 17.2468 7.40441C17.3171 7.62107 17.322 7.85368 17.2607 8.07308C17.1994 8.29248 17.0748 8.48892 16.9024 8.63779L16.9066 8.63709Z" fill="#D9E0FB"/>
<path d="M9.43052 1.6875C9.66097 1.68756 9.88001 1.75527 10.0711 1.87891C10.2568 2.00266 10.4086 2.18273 10.493 2.39648L12.0907 6.27148V6.27734L13.3622 6.37891V16.8408C13.2272 16.8127 13.0975 16.7733 12.9793 16.7002L9.4354 14.5215V14.5234L5.88071 16.7061C5.76259 16.7792 5.6329 16.8186 5.4979 16.8467C5.41353 16.8636 5.32325 16.875 5.23325 16.875C5.00837 16.8637 4.78891 16.7902 4.60337 16.6553C4.41791 16.5203 4.2768 16.3347 4.1981 16.1211C4.11949 15.9075 4.1085 15.6713 4.15903 15.4521L5.12681 11.3682L1.96567 8.63965C1.79133 8.4934 1.66719 8.2965 1.60532 8.07715C1.54357 7.85789 1.54958 7.62182 1.61704 7.4082C1.69017 7.18886 1.8189 6.99705 1.99888 6.85645C2.17325 6.71584 2.39303 6.63187 2.61802 6.60938L5.4979 6.37891L6.76939 6.27734L8.36704 2.40234C8.4514 2.19426 8.59773 2.01413 8.78892 1.88477C8.98017 1.75539 9.19989 1.6875 9.43052 1.6875Z" fill="#204AE5"/>
</svg>
