<svg width="19" height="18" viewBox="0 0 19 18" fill="none" xmlns="http://www.w3.org/2000/svg">
<path d="M17.2816 8.63709L14.1175 11.3673L15.0815 15.4504C15.1347 15.672 15.121 15.9045 15.0421 16.1183C14.9633 16.3322 14.8228 16.5179 14.6385 16.652C14.4541 16.7861 14.2342 16.8625 14.0064 16.8716C13.7787 16.8808 13.5533 16.8222 13.3588 16.7033L9.80806 14.518L6.25517 16.7033C6.06071 16.8215 5.83562 16.8795 5.60825 16.8701C5.38089 16.8606 5.16141 16.784 4.97745 16.6501C4.7935 16.5161 4.65329 16.3307 4.57449 16.1172C4.49569 15.9038 4.48182 15.6717 4.53462 15.4504L5.50212 11.3673L2.33806 8.63709C2.16601 8.48839 2.04157 8.29229 1.9803 8.07329C1.91903 7.85429 1.92363 7.62209 1.99354 7.40569C2.06345 7.18929 2.19556 6.99828 2.37338 6.85651C2.5512 6.71475 2.76684 6.62851 2.99337 6.60857L7.14181 6.27389L8.74212 2.40107C8.82874 2.19001 8.97617 2.00947 9.16567 1.88241C9.35516 1.75534 9.57815 1.6875 9.8063 1.6875C10.0345 1.6875 10.2574 1.75534 10.4469 1.88241C10.6364 2.00947 10.7839 2.19001 10.8705 2.40107L12.4701 6.27389L16.6185 6.60857C16.8455 6.62777 17.0618 6.71353 17.2402 6.85509C17.4187 6.99666 17.5514 7.18775 17.6218 7.40441C17.6921 7.62107 17.697 7.85368 17.6357 8.07308C17.5744 8.29248 17.4498 8.48892 17.2774 8.63779L17.2816 8.63709Z" fill="#D9E0FB"/>
<path d="M2.9931 6.60941C2.7681 6.63191 2.54872 6.71628 2.37435 6.85691C2.19435 6.99753 2.06497 7.18878 1.99185 7.40816C1.92435 7.62191 1.91872 7.85816 1.9806 8.07753C2.04247 8.29691 2.16622 8.49378 2.3406 8.64003L5.50185 11.3682L4.53435 15.4519C4.48372 15.6713 4.49497 15.9075 4.57372 16.1213C4.65247 16.335 4.7931 16.5207 4.97872 16.6557C5.16435 16.7907 5.38372 16.8638 5.60872 16.875C5.69872 16.875 5.78872 16.8638 5.8731 16.8469V6.37878L2.9931 6.60941Z" fill="#204AE5"/>
</svg>
