<svg width="96" height="96" viewBox="0 0 96 96" fill="none" xmlns="http://www.w3.org/2000/svg">
<rect width="96" height="96" rx="8" fill="#F8F8F8"/>
<path d="M48.0723 32.7188C48.4317 32.7361 48.786 32.8828 49.0605 33.1572C49.0671 33.1638 49.0727 33.1711 49.0791 33.1777L60.958 45.0566C60.9861 45.0826 61.0131 45.1097 61.0391 45.1377L63.9824 48.0811C64.5678 48.6668 64.568 49.6165 63.9824 50.2021C63.3967 50.7878 62.4471 50.7876 61.8613 50.2021L61.4404 49.7812V58.4609H62.9248L63.0781 58.4688C63.8342 58.5457 64.4246 59.1846 64.4248 59.9609C64.4248 60.7374 63.8343 61.3761 63.0781 61.4531L62.9248 61.4609H33.0762C32.2477 61.4609 31.5762 60.7894 31.5762 59.9609C31.5764 59.1327 32.2479 58.4609 33.0762 58.4609H34.5586V49.7803L34.1367 50.2021C33.551 50.7877 32.6014 50.7877 32.0156 50.2021C31.43 49.6164 31.4301 48.6668 32.0156 48.0811L34.9688 45.127C34.9884 45.1062 35.0085 45.086 35.0293 45.0664L46.918 33.1777C46.9245 33.1709 46.9308 33.1639 46.9375 33.1572C47.2121 32.8827 47.5663 32.736 47.9258 32.7188H48.0723ZM37.5586 46.7803V58.4609H58.4404V46.7812L47.999 36.3398L37.5586 46.7803Z" fill="#DDE0E4"/>
<path d="M44 52C44 50.8954 44.8954 50 46 50H50C51.1046 50 52 50.8954 52 52V60H44V52Z" stroke="#DDE0E4" stroke-width="3"/>
</svg>
